<?xml version="1.0" encoding="utf-8"?>
<!-- Generator: Adobe Illustrator 24.0.2, SVG Export Plug-In . SVG Version: 6.00 Build 0)  -->
<svg version="1.1" id="Layer_1" xmlns="http://www.w3.org/2000/svg" xmlns:xlink="http://www.w3.org/1999/xlink" x="0px" y="0px"
	 viewBox="0 0 841.89 595.28" style="enable-background:new 0 0 841.89 595.28;" xml:space="preserve">
<style type="text/css">
	.st0{fill:#B823C9;}
	.st1{fill:#050404;}
	.st2{stroke:#000000;stroke-miterlimit:10;}
	.st3{font-family:'MyriadPro-Regular';}
	.st4{font-size:30.5073px;}
</style>
<rect id="kassen" x="338.48" y="201.6" class="st0" width="40.68" height="271.01"/>
<path id="omkreds" class="st1" d="M416.95,408.4c-0.11-0.3-0.12-0.64-0.17-0.95c-3.36-7.26-7.11-14.27-12.99-19.91
	c-0.4-0.38-0.6-0.97-0.9-1.45c-2.12-1.77-4.23-3.56-6.37-5.31c-0.58-0.48-0.81-1.04-0.79-1.76c0.03-0.76,0.01-1.53,0.01-2.29v-83.36
	c0-49.71,0-99.42,0.01-149.12c0-4.83-0.35-9.61-1.32-14.34c-4.73-14.06-14.03-23.14-28.7-26.38c-0.51-0.11-1.25,0.24-1.46-0.61
	h-12.7c-0.15,1.05-1.08,0.88-1.74,1.05c-16.49,4.27-27.83,18.68-27.84,35.66c-0.03,55.82,0.01,111.64,0.02,167.46
	c0,23.37-0.03,46.75,0.03,70.13c0.01,1.92-0.51,3.2-2.08,4.47c-11.13,8.95-18.32,20.44-21.68,34.35c-0.42,1.72-1.04,3.39-1.58,5.09
	v16.77c0.95,0.7,0.67,1.83,0.83,2.75c2.64,14.58,9.55,26.69,20.62,36.53c5.34,4.75,11.57,7.96,17.88,11.09
	c5.12,1.4,10.15,3.03,15.48,3.65c26.38,3.07,51.89-10.88,63.28-34.93C422.27,441.16,422.86,424.9,416.95,408.4z M412.13,441.55
	c-4.89,22.69-19.51,37.06-42.2,42.14c-35.43,7.94-68.76-21.6-65.69-57.81c1.4-16.55,8.89-29.82,22.12-39.78
	c2.13-1.6,2.98-3.27,2.98-5.93c-0.06-79.88-0.06-159.77-0.05-239.66c0-14.33,9.14-26.2,22.62-29.44
	c18.11-4.36,35.67,9.04,36.25,27.8c0.23,7.62,0.06,15.25,0.07,22.87c0.01,8.89-0.06,17.79,0.05,26.68v1.14h-36.79v8.48h36.79
	l0.01,44.18h-39.03v8.48h39.03l0.01,33.84l0.01,6.63c-0.01-0.36-0.01-0.73-0.01-1.09v3.29h-36.8v8.48h36.8v1.87
	c0.01-0.17,0.01-0.34,0.02-0.5l-0.01,24.43v16.57h-39.04v8.48h39.04v1.87c-0.16,8.47,0.03,16.94-0.12,25.41
	c-0.05,2.73,0.85,4.46,3.03,6.17C409.3,400.37,416.98,419.04,412.13,441.55z"/>
<g id="tal">
	<text transform="matrix(1 0 0 1 401.7186 256.1738)" class="st2 st3 st4">15</text>
	<text transform="matrix(1 0 0 1 401.7186 202.7861)" class="st2 st3 st4">20</text>
	<text transform="matrix(1 0 0 1 409.1512 357.8652)" class="st2 st3 st4">5</text>
	<text transform="matrix(1 0 0 1 401.7186 306.5107)" class="st2 st3 st4">10</text>
</g>
<circle id="circle" class="st0" cx="358.81" cy="430.41" r="50.34"/>
</svg>
